<?xml version="1.0"?>
<svg id="Layer_2" data-name="Layer 2" xmlns="http://www.w3.org/2000/svg" viewBox="0 0 95.94 148.41">
  <defs></defs>
  <g id="Layer_1-2" data-name="Layer 1">
    <path fill="#11D982" d="M51.65,30.47c5.3-.93,10.78-.9,15.96.67,8.83,2.67,11.72,5.45,16.16,10.26,3.45,3.74,6.35,8.1,8.09,12.9,3.52,9.65,3.59,20.05,3.89,30.21.29,13.38,1.05,28.1-5.55,40.28-19.04,34.07-67.99,30.06-84.45-4.18C2.34,113.58.48,105.84.02,98.03c-.08-3.01-.07-6.8,1.93-9.21,1.21-1.19,2.66-.4,3.36,1.29,1.79,4.02,2.39,10.89,4.77,14.89,1.04,1.85,2.22,3.63,3.51,5.31,13.82,19.36,47.08,21.62,59.47.23,1.06-2.38,1.47-5.67-1.94-4.46-9.45,3.14-20,2.81-29.15-1.23-7.48-3.29-13.52-8.51-17.2-15.89-3.51-7.03-4.63-15.11-3.79-22.88.84-7.86,3.69-15.59,8.46-21.93,4.82-6.41,11.62-11.16,19.43-13.09.92-.23,1.85-.42,2.79-.59ZM57.87,50.21c2.36-.56,2.64,3.48,3.32,5.06.44,1.32.99,2.61,1.69,3.82,2.28,4.18,6.59,6.75,10.9,8.35,1,.42,2.61.99,2.68,2.09-.4,2.34-5.51,3.11-7.35,4.46-3.49,1.98-6.26,5.26-7.6,9.04-.61,1.56-.84,3.33-1.54,4.84-.82,1.8-2.59,1.74-3.41-.06-.44-.86-.66-1.89-.92-2.83-1.36-5.2-5.2-9.71-10.13-11.88-1.45-.69-3.19-1.09-4.53-1.93-3-2.2,1.55-3.95,3.42-4.6,4.67-1.8,8.62-5.44,10.41-10.06.94-1.97,1.06-5.04,2.99-6.27l.08-.03Z"></path>
    <g>
      <circle fill="#11D982" cx="44.67" cy="11.09" r="11.09"></circle>
      <circle fill="#11D982" cx="71.74" cy="11.09" r="11.09"></circle>
    </g>
  </g>
</svg>