<?xml version="1.0"?>
<svg id="Layer_2" data-name="Layer 2" xmlns="http://www.w3.org/2000/svg" viewBox="0 0 787.93 155.8">
  <defs></defs>
  <g id="Layer_1-2" data-name="Layer 1">
    <g>
      <path fill="#1B2A4B" d="M112.8,10.4v21.6h-43.2v121.2h-26V32H0V10.4h112.8Z"></path>
      <path fill="#1B2A4B" d="M151.8,155.8c-10,0-18.6-2.17-25.8-6.5-7.2-4.33-12.7-10.6-16.5-18.8-3.8-8.2-5.7-18.03-5.7-29.5s1.9-21.03,5.7-29.1c3.8-8.07,9.27-14.27,16.4-18.6,7.13-4.33,15.7-6.5,25.7-6.5,4.4,0,8.5.53,12.3,1.6,3.8,1.07,7.23,2.67,10.3,4.8,3.07,2.13,5.53,4.67,7.4,7.6h.4l-1-11.6h24.6v104h-26.6l2-11.8h-.4c-2.8,4.53-6.73,8.07-11.8,10.6-5.07,2.53-10.73,3.8-17,3.8ZM129.4,101c0,7.2,1.03,13.37,3.1,18.5,2.07,5.13,5.07,9.03,9,11.7,3.93,2.67,8.57,4,13.9,4s10.1-1.33,13.9-4c3.8-2.67,6.7-6.57,8.7-11.7,2-5.13,3-11.3,3-18.5s-1.04-13.37-3.1-18.5c-2.07-5.13-5-9.07-8.8-11.8-3.8-2.73-8.37-4.1-13.7-4.1s-10.17,1.37-14.1,4.1c-3.93,2.73-6.9,6.67-8.9,11.8-2,5.13-3,11.3-3,18.5Z"></path>
      <path fill="#1B2A4B" d="M238.2,40.8c0-7.73,1.46-14.17,4.4-19.3,2.93-5.13,7.27-9,13-11.6,5.73-2.6,12.8-3.9,21.2-3.9,2.4,0,4.83.23,7.3.7,2.47.47,4.57,1.1,6.3,1.9v20.2c-1.87-.93-3.9-1.63-6.1-2.1-2.2-.47-4.23-.7-6.1-.7-5.07,0-8.9,1.37-11.5,4.1-2.6,2.73-3.9,6.83-3.9,12.3v6.8h22.8v19.2h-22.8v84.8h-24.6v-84.8h-16.6v-19.8l16.6,1v-8.8Z"></path>
      <path fill="#1B2A4B" d="M346.4,155.8c-10,0-18.6-2.17-25.8-6.5-7.2-4.33-12.7-10.6-16.5-18.8-3.8-8.2-5.7-18.03-5.7-29.5s1.9-21.03,5.7-29.1c3.8-8.07,9.27-14.27,16.4-18.6,7.13-4.33,15.7-6.5,25.7-6.5,4.4,0,8.5.53,12.3,1.6,3.8,1.07,7.23,2.67,10.3,4.8,3.07,2.13,5.53,4.67,7.4,7.6h.4l-1-11.6h24.6v104h-26.6l2-11.8h-.4c-2.8,4.53-6.73,8.07-11.8,10.6-5.07,2.53-10.73,3.8-17,3.8ZM324,101c0,7.2,1.03,13.37,3.1,18.5,2.07,5.13,5.07,9.03,9,11.7,3.93,2.67,8.57,4,13.9,4s10.1-1.33,13.9-4c3.8-2.67,6.7-6.57,8.7-11.7,2-5.13,3-11.3,3-18.5s-1.03-13.37-3.1-18.5c-2.07-5.13-5-9.07-8.8-11.8-3.8-2.73-8.37-4.1-13.7-4.1s-10.17,1.37-14.1,4.1c-3.93,2.73-6.9,6.67-8.9,11.8-2,5.13-3,11.3-3,18.5Z"></path>
      <path fill="#1B2A4B" d="M416.2,49.2h24.8l17,66h.4l23.4-66h19.8l23.4,66h.4l16.8-66h24.8l-27.6,104h-23.8l-23.8-72.8h-.4l-23.6,72.8h-23.8l-27.8-104Z"></path>
      <path fill="#1B2A4B" d="M623,155.8c-10,0-18.6-2.17-25.8-6.5-7.2-4.33-12.7-10.6-16.5-18.8-3.8-8.2-5.7-18.03-5.7-29.5s1.9-21.03,5.7-29.1c3.8-8.07,9.27-14.27,16.4-18.6,7.13-4.33,15.7-6.5,25.7-6.5,4.4,0,8.5.53,12.3,1.6,3.8,1.07,7.23,2.67,10.3,4.8,3.07,2.13,5.53,4.67,7.4,7.6h.4l-1-11.6h24.6v104h-26.6l2-11.8h-.4c-2.8,4.53-6.73,8.07-11.8,10.6-5.07,2.53-10.73,3.8-17,3.8ZM600.6,101c0,7.2,1.03,13.37,3.1,18.5,2.07,5.13,5.07,9.03,9,11.7,3.93,2.67,8.57,4,13.9,4s10.1-1.33,13.9-4c3.8-2.67,6.7-6.57,8.7-11.7,2-5.13,3-11.3,3-18.5s-1.03-13.37-3.1-18.5c-2.07-5.13-5-9.07-8.8-11.8-3.8-2.73-8.37-4.1-13.7-4.1s-10.17,1.37-14.1,4.1c-3.93,2.73-6.9,6.67-8.9,11.8-2,5.13-3,11.3-3,18.5Z"></path>
    </g>
    <path fill="#11D982" d="M483.67,26.52c-3.29,0-5.61-1.09-6.95-3.28-1.34-2.19-2.01-4.92-2.01-8.22,0-.89.05-1.89.14-3,.09-1.1.26-2.29.49-3.56l6.84-1.62c-.05,1.18-.11,2.32-.18,3.42-.07,1.11-.11,2.15-.11,3.14,0,1.18.16,2.13.49,2.86.33.73.92,1.09,1.76,1.09,1.08,0,1.92-.53,2.5-1.59.59-1.06.9-2.95.95-5.68l.14-4.87,7.33-1.69.07,6.63c0,1.32.2,2.28.6,2.89.4.61.95.92,1.66.92,1.08,0,1.82-.42,2.22-1.27.4-.85.6-1.88.6-3.1,0-1.36-.06-2.63-.18-3.81-.12-1.17-.22-2.42-.32-3.74l7.19-2.05c.38,1.51.67,3.21.88,5.11.21,1.9.32,3.66.32,5.25,0,3.86-.91,6.88-2.72,9.06-1.81,2.19-4.22,3.28-7.23,3.28-1.83,0-3.49-.62-4.97-1.87-1.48-1.25-2.22-3.35-2.22-6.31l1.9.35c0,3.86-1.02,6.76-3.07,8.71-2.05,1.95-4.1,2.93-6.17,2.93Z"></path>
    <path fill="#11D982" d="M743.65,35.27c5.3-.93,10.78-.9,15.96.67,8.83,2.67,11.72,5.45,16.16,10.26,3.45,3.74,6.35,8.1,8.09,12.9,3.52,9.65,3.59,20.05,3.89,30.21.29,13.38,1.05,28.1-5.55,40.28-19.04,34.07-67.99,30.06-84.45-4.18-3.42-7.03-5.28-14.76-5.73-22.58-.08-3.01-.07-6.8,1.93-9.21,1.21-1.19,2.66-.4,3.36,1.29,1.79,4.02,2.39,10.89,4.77,14.89,1.04,1.85,2.22,3.63,3.51,5.31,13.82,19.36,47.08,21.62,59.47.23,1.06-2.38,1.47-5.67-1.94-4.46-9.45,3.14-20,2.81-29.15-1.23-7.48-3.29-13.52-8.51-17.2-15.89-3.51-7.03-4.63-15.11-3.79-22.88.84-7.86,3.69-15.59,8.46-21.93,4.82-6.41,11.62-11.16,19.43-13.09.92-.23,1.85-.42,2.79-.59ZM749.86,55c2.36-.56,2.64,3.48,3.32,5.06.44,1.32.99,2.61,1.69,3.82,2.28,4.18,6.59,6.75,10.9,8.35,1,.42,2.61.99,2.68,2.09-.4,2.34-5.51,3.11-7.35,4.46-3.49,1.98-6.26,5.26-7.6,9.04-.61,1.56-.84,3.33-1.54,4.84-.82,1.8-2.59,1.74-3.41-.06-.44-.86-.66-1.89-.92-2.83-1.36-5.2-5.2-9.71-10.13-11.88-1.45-.69-3.19-1.09-4.53-1.93-3-2.2,1.55-3.95,3.42-4.6,4.67-1.8,8.62-5.44,10.41-10.06.94-1.97,1.06-5.04,2.99-6.27l.08-.03Z"></path>
    <g>
      <circle fill="#11D982" cx="736.66" cy="15.89" r="11.09"></circle>
      <circle fill="#11D982" cx="763.73" cy="15.89" r="11.09"></circle>
    </g>
  </g>
</svg>